<svg width="413" height="196" viewBox="0 0 413 196" fill="none" xmlns="http://www.w3.org/2000/svg">
<g opacity="0.4">
<rect x="225.605" y="48.7544" width="6.26523" height="27.1493" transform="rotate(36.2587 225.605 48.7544)" fill="#FFEF93"/>
<rect x="168" y="3.72314" width="6.26523" height="27.1493" transform="rotate(-29.6666 168 3.72314)" fill="#FFEF93"/>
<rect x="346" y="29.106" width="6.26523" height="27.1493" transform="rotate(-45.7168 346 29.106)" fill="#FFEF93"/>
<rect y="176.68" width="10.047" height="27.1493" transform="rotate(-45.7168 0 176.68)" fill="#8C52FF"/>
<rect x="8.24609" y="101.62" width="10.047" height="27.1493" transform="rotate(-13.1472 8.24609 101.62)" fill="#FFA4CB"/>
<rect x="407.286" y="84.2017" width="6.26523" height="15.3143" transform="rotate(27.2018 407.286 84.2017)" fill="#8EA7FB"/>
<rect x="138" y="60.1118" width="6.26523" height="6.26523" transform="rotate(-13.7686 138 60.1118)" fill="#B28BFF"/>
<rect x="254" y="23.1118" width="6.26523" height="6.26523" transform="rotate(-13.7686 254 23.1118)" fill="#567CF9"/>
<rect x="274.265" y="1.62158" width="7.41676" height="7.41676" transform="rotate(2.04438 274.265 1.62158)" fill="#8C52FF"/>
<rect x="92" y="35.1079" width="10.4485" height="10.4485" transform="rotate(-13.7686 92 35.1079)" fill="#8C52FF"/>
<rect x="386" y="140.26" width="10.4485" height="10.4485" transform="rotate(-55.778 386 140.26)" fill="#8C52FF"/>
<rect x="41" y="6.75244" width="13.1544" height="13.1544" transform="rotate(-13.7686 41 6.75244)" fill="#B28BFF"/>
<path d="M61.8543 64.8454L64.4805 67.7005L68.0074 66.085L66.1036 69.465L68.7299 72.32L64.927 71.5539L63.0233 74.9339L62.5768 71.0804L58.7739 70.3143L62.3008 68.6989L61.8543 64.8454Z" fill="#B28BFF"/>
<path d="M364.312 82.0854L364.129 86.9756L369.011 87.3164L364.685 89.6034L366.83 94.0014L362.687 91.3983L359.951 95.4554L360.133 90.5653L355.252 90.2245L359.578 87.9375L357.432 83.5394L361.576 86.1426L364.312 82.0854Z" fill="#B28BFF"/>
<path d="M50.8095 105.086L51.9064 108.93L55.7832 107.958L53.0032 110.83L55.7832 113.701L51.9064 112.729L50.8095 116.573L49.7127 112.729L45.8358 113.701L48.6159 110.83L45.8358 107.958L49.7127 108.93L50.8095 105.086Z" fill="#99E4FF"/>
<path d="M198.563 116.573L199.959 121.464L204.893 120.227L201.355 123.882L204.893 127.537L199.959 126.3L198.563 131.192L197.167 126.3L192.233 127.537L195.771 123.882L192.233 120.227L197.167 121.464L198.563 116.573Z" fill="#B28BFF"/>
<path d="M402.065 33.2209L406.351 38.4374L402.714 44.1256L396.18 42.4246L395.779 35.6851L402.065 33.2209Z" fill="#4E71E3"/>
<path d="M20.4597 41.9259L26.973 48.3472L24.6686 57.1985L15.851 59.6286L9.3377 53.2073L11.6421 44.356L20.4597 41.9259Z" fill="#B28BFF"/>
<circle cx="312.383" cy="90.4676" r="5.22102" fill="#FFA4CB"/>
<circle cx="352.655" cy="123.276" r="3.65472" fill="#B28BFF"/>
</g>
</svg>
